<svg width="2969" height="2969" viewBox="0 0 2969 2969" fill="none" xmlns="http://www.w3.org/2000/svg">
<g clip-path="url(#clip0_43_7)">
<path d="M1597.2 2844.52L1349.84 2844.54" stroke="white" stroke-opacity="0.06"/>
<path d="M1227.2 2720.88L1721.91 2720.84" stroke="white" stroke-opacity="0.06"/>
<path d="M1104.55 2597.21L1846.62 2597.15" stroke="white" stroke-opacity="0.06"/>
<path d="M981.905 2473.55L1971.33 2473.47" stroke="white" stroke-opacity="0.06"/>
<path d="M859.26 2349.89L2096.03 2349.78" stroke="white" stroke-opacity="0.06"/>
<path d="M2220.74 2226.1L736.614 2226.23" stroke="white" stroke-opacity="0.06"/>
<path d="M613.968 2102.56L2345.45 2102.42" stroke="white" stroke-opacity="0.06"/>
<path d="M2470.16 1978.73L491.322 1978.9" stroke="white" stroke-opacity="0.06"/>
<path d="M368.677 1855.24L2594.87 1855.05" stroke="white" stroke-opacity="0.06"/>
<path d="M2719.58 1731.37L246.031 1731.57" stroke="white" stroke-opacity="0.06"/>
<path d="M123.385 1607.91L2844.29 1607.68" stroke="white" stroke-opacity="0.06"/>
<path d="M2969 1484L0.739595 1484.25" stroke="white" stroke-opacity="0.06"/>
<path d="M125.449 1360.56L2846.35 1360.34" stroke="white" stroke-opacity="0.06"/>
<path d="M2723.71 1236.67L250.158 1236.88" stroke="white" stroke-opacity="0.06"/>
<path d="M374.868 1113.2L2601.06 1113.01" stroke="white" stroke-opacity="0.06"/>
<path d="M2478.42 989.348L499.577 989.514" stroke="white" stroke-opacity="0.06"/>
<path d="M624.286 865.83L2355.77 865.686" stroke="white" stroke-opacity="0.06"/>
<path d="M2233.13 742.023L748.996 742.147" stroke="white" stroke-opacity="0.06"/>
<path d="M2110.48 618.36L873.705 618.463" stroke="white" stroke-opacity="0.06"/>
<path d="M1987.83 494.697L998.414 494.78" stroke="white" stroke-opacity="0.06"/>
<path d="M1865.19 371.034L1123.12 371.096" stroke="white" stroke-opacity="0.06"/>
<path d="M1742.54 247.371L1247.83 247.412" stroke="white" stroke-opacity="0.06"/>
<path d="M1619.9 123.708L1372.54 123.729" stroke="white" stroke-opacity="0.06"/>
<path d="M123.385 1607.91L125.449 1360.56" stroke="white" stroke-opacity="0.06"/>
<path d="M246.031 1731.57L250.158 1236.88" stroke="white" stroke-opacity="0.06"/>
<path d="M368.677 1855.24L374.868 1113.2" stroke="white" stroke-opacity="0.06"/>
<path d="M491.323 1978.9L499.577 989.514" stroke="white" stroke-opacity="0.06"/>
<path d="M613.968 2102.56L624.286 865.83" stroke="white" stroke-opacity="0.06"/>
<path d="M736.614 2226.23L748.996 742.147" stroke="white" stroke-opacity="0.06"/>
<path d="M859.26 2349.89L873.705 618.463" stroke="white" stroke-opacity="0.06"/>
<path d="M981.905 2473.55L998.414 494.78" stroke="white" stroke-opacity="0.06"/>
<path d="M1104.55 2597.21L1123.12 371.096" stroke="white" stroke-opacity="0.06"/>
<path d="M1227.2 2720.88L1247.83 247.413" stroke="white" stroke-opacity="0.06"/>
<path d="M1349.84 2844.54L1372.54 123.729" stroke="white" stroke-opacity="0.06"/>
<path d="M1472.49 2968.2L1497.25 0.045412" stroke="white" stroke-opacity="0.06"/>
<path d="M1597.2 2844.52L1619.9 123.708" stroke="white" stroke-opacity="0.06"/>
<path d="M1721.91 2720.84L1742.54 247.371" stroke="white" stroke-opacity="0.06"/>
<path d="M1846.62 2597.15L1865.19 371.034" stroke="white" stroke-opacity="0.06"/>
<path d="M1971.33 2473.47L1987.83 494.697" stroke="white" stroke-opacity="0.06"/>
<path d="M2096.03 2349.78L2110.48 618.36" stroke="white" stroke-opacity="0.06"/>
<path d="M2220.74 2226.1L2233.13 742.023" stroke="white" stroke-opacity="0.06"/>
<path d="M2345.45 2102.42L2355.77 865.686" stroke="white" stroke-opacity="0.06"/>
<path d="M2470.16 1978.73L2478.42 989.349" stroke="white" stroke-opacity="0.06"/>
<path d="M2594.87 1855.05L2601.06 1113.01" stroke="white" stroke-opacity="0.06"/>
<path d="M2719.58 1731.37L2723.71 1236.67" stroke="white" stroke-opacity="0.06"/>
<path d="M2844.29 1607.68L2846.35 1360.34" stroke="white" stroke-opacity="0.06"/>
</g>
<defs>
<clipPath id="clip0_43_7">
<rect width="2090.02" height="2107.7" fill="white" transform="translate(1472.49 2968.2) rotate(-134.763)"/>
</clipPath>
</defs>
</svg>
