<svg width="25" height="25" viewBox="0 0 25 25" fill="none" xmlns="http://www.w3.org/2000/svg">
<path d="M5.88477 10.0215H9.79102C9.88167 10.0215 9.9686 9.98545 10.0327 9.92135C10.0968 9.85725 10.1328 9.77031 10.1328 9.67966V8.67966C10.1328 8.34525 10.0551 8.01541 9.90601 7.71608C9.75689 7.41676 9.54036 7.15612 9.27344 6.95466C9.52888 6.67584 9.69768 6.32871 9.75925 5.95561C9.82082 5.58251 9.7725 5.19955 9.62019 4.85343C9.46787 4.50732 9.21814 4.213 8.90144 4.00636C8.58475 3.79972 8.21477 3.6897 7.83662 3.6897C7.45847 3.6897 7.0885 3.79972 6.7718 4.00636C6.4551 4.213 6.20537 4.50732 6.05306 4.85343C5.90074 5.19955 5.85242 5.58251 5.91399 5.95561C5.97556 6.32871 6.14436 6.67584 6.3998 6.95466C6.1335 7.15652 5.91755 7.4173 5.7689 7.71658C5.62024 8.01586 5.54291 8.3455 5.54297 8.67966V9.67966C5.54297 9.72455 5.55181 9.76899 5.56899 9.81046C5.58616 9.85193 5.61134 9.88961 5.64308 9.92135C5.67482 9.95309 5.7125 9.97826 5.75397 9.99544C5.79543 10.0126 5.83988 10.0215 5.88477 10.0215ZM7.83789 4.3781C8.08809 4.3781 8.33267 4.45229 8.54071 4.5913C8.74874 4.7303 8.91089 4.92787 9.00663 5.15903C9.10238 5.39018 9.12743 5.64454 9.07862 5.88994C9.02981 6.13533 8.90933 6.36074 8.73241 6.53766C8.55549 6.71457 8.33008 6.83506 8.08469 6.88387C7.83929 6.93268 7.58494 6.90763 7.35378 6.81188C7.12263 6.71613 6.92505 6.55399 6.78605 6.34596C6.64705 6.13792 6.57285 5.89334 6.57285 5.64314C6.57332 5.30792 6.70665 4.98657 6.94362 4.74948C7.1806 4.51239 7.5019 4.37891 7.83711 4.37829L7.83789 4.3781ZM6.22656 8.67966C6.22704 8.41725 6.29729 8.15968 6.43011 7.93337C6.56293 7.70706 6.75355 7.52014 6.98242 7.39177C7.24816 7.52347 7.54073 7.59199 7.8373 7.59199C8.13388 7.59199 8.42645 7.52347 8.69219 7.39177C8.92149 7.51973 9.11253 7.70653 9.24559 7.93291C9.37866 8.15929 9.44895 8.41707 9.44922 8.67966V9.33787H6.22656V8.67966Z" fill="white"/>
<path d="M22.0027 0.927735H2.99727C2.90675 0.927942 2.82001 0.964044 2.75608 1.02812C2.69215 1.0922 2.65625 1.17902 2.65625 1.26953V23.7305C2.65625 23.8211 2.69226 23.9081 2.75636 23.9722C2.82046 24.0363 2.9074 24.0723 2.99805 24.0723H22.0035C22.0942 24.0723 22.1811 24.0363 22.2452 23.9722C22.3093 23.9081 22.3453 23.8211 22.3453 23.7305V1.26953C22.3453 1.22458 22.3364 1.18007 22.3192 1.13855C22.302 1.09703 22.2767 1.05932 22.2449 1.02757C22.2131 0.99582 22.1753 0.970659 22.1338 0.953528C22.0922 0.936398 22.0477 0.927633 22.0027 0.927735ZM21.6609 23.3887H3.33984V1.61133H21.6602L21.6609 23.3887Z" fill="white"/>
<path d="M5.14569 12.8418H19.8543C19.9449 12.8418 20.0319 12.8058 20.096 12.7417C20.1601 12.6776 20.1961 12.5907 20.1961 12.5C20.1961 12.4093 20.1601 12.3224 20.096 12.2583C20.0319 12.1942 19.9449 12.1582 19.8543 12.1582H5.14569C5.05504 12.1582 4.9681 12.1942 4.904 12.2583C4.8399 12.3224 4.80389 12.4093 4.80389 12.5C4.80389 12.5907 4.8399 12.6776 4.904 12.7417C4.9681 12.8058 5.05504 12.8418 5.14569 12.8418Z" fill="white"/>
<path d="M5.14569 15.6628H19.8543C19.9449 15.6628 20.0319 15.6268 20.096 15.5627C20.1601 15.4986 20.1961 15.4117 20.1961 15.321C20.1961 15.2304 20.1601 15.1435 20.096 15.0794C20.0319 15.0153 19.9449 14.9792 19.8543 14.9792H5.14569C5.05504 14.9792 4.9681 15.0153 4.904 15.0794C4.8399 15.1435 4.80389 15.2304 4.80389 15.321C4.80389 15.4117 4.8399 15.4986 4.904 15.5627C4.9681 15.6268 5.05504 15.6628 5.14569 15.6628Z" fill="white"/>
<path d="M5.14569 21.3053H19.8543C19.9449 21.3053 20.0319 21.2693 20.096 21.2052C20.1601 21.1411 20.1961 21.0542 20.1961 20.9635C20.1961 20.8729 20.1601 20.7859 20.096 20.7218C20.0319 20.6577 19.9449 20.6217 19.8543 20.6217H5.14569C5.05504 20.6217 4.9681 20.6577 4.904 20.7218C4.8399 20.7859 4.80389 20.8729 4.80389 20.9635C4.80389 21.0542 4.8399 21.1411 4.904 21.2052C4.9681 21.2693 5.05504 21.3053 5.14569 21.3053Z" fill="white"/>
<path d="M5.14569 18.4841H19.8543C19.9449 18.4841 20.0319 18.4481 20.096 18.384C20.1601 18.3199 20.1961 18.233 20.1961 18.1423C20.1961 18.0517 20.1601 17.9647 20.096 17.9006C20.0319 17.8365 19.9449 17.8005 19.8543 17.8005H5.14569C5.05504 17.8005 4.9681 17.8365 4.904 17.9006C4.8399 17.9647 4.80389 18.0517 4.80389 18.1423C4.80389 18.233 4.8399 18.3199 4.904 18.384C4.9681 18.4481 5.05504 18.4841 5.14569 18.4841Z" fill="white"/>
<path d="M12.5 4.3783H19.8543C19.9449 4.3783 20.0319 4.34229 20.096 4.27819C20.1601 4.21409 20.1961 4.12715 20.1961 4.0365C20.1961 3.94585 20.1601 3.85891 20.096 3.79481C20.0319 3.73071 19.9449 3.6947 19.8543 3.6947H12.5C12.4093 3.6947 12.3224 3.73071 12.2583 3.79481C12.1942 3.85891 12.1582 3.94585 12.1582 4.0365C12.1582 4.12715 12.1942 4.21409 12.2583 4.27819C12.3224 4.34229 12.4093 4.3783 12.5 4.3783Z" fill="white"/>
<path d="M12.5 7.19946H19.8543C19.9449 7.19946 20.0319 7.16345 20.096 7.09935C20.1601 7.03525 20.1961 6.94832 20.1961 6.85767C20.1961 6.76702 20.1601 6.68008 20.096 6.61598C20.0319 6.55188 19.9449 6.51587 19.8543 6.51587H12.5C12.4093 6.51587 12.3224 6.55188 12.2583 6.61598C12.1942 6.68008 12.1582 6.76702 12.1582 6.85767C12.1582 6.94832 12.1942 7.03525 12.2583 7.09935C12.3224 7.16345 12.4093 7.19946 12.5 7.19946Z" fill="white"/>
<path d="M12.5 10.0208H19.8543C19.9449 10.0208 20.0319 9.98474 20.096 9.92064C20.1601 9.85654 20.1961 9.76961 20.1961 9.67896C20.1961 9.5883 20.1601 9.50137 20.096 9.43727C20.0319 9.37317 19.9449 9.33716 19.8543 9.33716H12.5C12.4093 9.33716 12.3224 9.37317 12.2583 9.43727C12.1942 9.50137 12.1582 9.5883 12.1582 9.67896C12.1582 9.76961 12.1942 9.85654 12.2583 9.92064C12.3224 9.98474 12.4093 10.0208 12.5 10.0208Z" fill="white"/>
</svg>
