<svg width="1920" height="900" viewBox="0 0 1920 900" fill="none" xmlns="http://www.w3.org/2000/svg">
<g clip-path="url(#clip0_43_205)">
<path d="M-747.526 2737.31L2506.82 2735.49" stroke="white" stroke-opacity="0.07"/>
<path d="M2737.49 2443.02L-981.764 2445.1" stroke="white" stroke-opacity="0.07"/>
<path d="M-1216 2152.88L2968.15 2150.54" stroke="white" stroke-opacity="0.07"/>
<path d="M3198.82 1858.06L-1450.24 1860.67" stroke="white" stroke-opacity="0.07"/>
<path d="M-1684.48 1568.45L3429.49 1565.59" stroke="white" stroke-opacity="0.07"/>
<path d="M3660.16 1273.11L-1918.72 1276.23" stroke="white" stroke-opacity="0.07"/>
<path d="M-1688.05 983.758L3425.92 980.895" stroke="white" stroke-opacity="0.07"/>
<path d="M3191.68 688.679L-1457.38 691.281" stroke="white" stroke-opacity="0.07"/>
<path d="M-1226.71 398.804L2957.44 396.463" stroke="white" stroke-opacity="0.07"/>
<path d="M2723.2 104.248L-996.045 106.33" stroke="white" stroke-opacity="0.07"/>
<path d="M-765.378 -186.148L2488.97 -187.969" stroke="white" stroke-opacity="0.07"/>
<path d="M2254.73 -480.185L-534.71 -478.624" stroke="white" stroke-opacity="0.07"/>
<path d="M2020.49 -772.401L-304.04 -771.1" stroke="white" stroke-opacity="0.07"/>
<path d="M1786.25 -1064.62L-73.3723 -1063.58" stroke="white" stroke-opacity="0.07"/>
<path d="M-747.527 2737.31L-765.377 -186.148" stroke="white" stroke-opacity="0.07"/>
<path d="M-513.289 3029.53L-534.709 -478.623" stroke="white" stroke-opacity="0.07"/>
<path d="M-279.051 3321.75L-304.041 -771.101" stroke="white" stroke-opacity="0.07"/>
<path d="M-44.8125 3613.96L-73.3724 -1063.58" stroke="white" stroke-opacity="0.07"/>
<path d="M189.426 3906.18L157.296 -1356.05" stroke="white" stroke-opacity="0.07"/>
<path d="M423.664 4198.4L387.964 -1648.53" stroke="white" stroke-opacity="0.07"/>
<path d="M657.902 4490.61L618.633 -1941.01" stroke="white" stroke-opacity="0.07"/>
<path d="M892.141 4782.83L849.301 -2233.48" stroke="white" stroke-opacity="0.07"/>
<path d="M1122.81 4490.35L1083.54 -1941.27" stroke="white" stroke-opacity="0.07"/>
<path d="M1353.48 4197.88L1317.78 -1649.05" stroke="white" stroke-opacity="0.07"/>
<path d="M1584.14 3905.4L1552.01 -1356.83" stroke="white" stroke-opacity="0.07"/>
<path d="M1814.81 3612.92L1786.25 -1064.62" stroke="white" stroke-opacity="0.07"/>
<path d="M2045.48 3320.45L2020.49 -772.401" stroke="white" stroke-opacity="0.07"/>
<path d="M2276.15 3027.97L2254.73 -480.185" stroke="white" stroke-opacity="0.07"/>
<path d="M2506.82 2735.49L2488.97 -187.968" stroke="white" stroke-opacity="0.07"/>
<path d="M2737.48 2443.02L2723.2 104.248" stroke="white" stroke-opacity="0.07"/>
</g>
<defs>
<clipPath id="clip0_43_205">
<rect width="1920" height="900" fill="white"/>
</clipPath>
</defs>
</svg>
